<svg xmlns="http://www.w3.org/2000/svg" viewBox="0 0 512 512" width="512" height="512">
  <defs>
    <linearGradient id="bg" x1="0" y1="0" x2="1" y2="1">
      <stop offset="0%" stop-color="#0F2B3D"/>
      <stop offset="100%" stop-color="#1A4566"/>
    </linearGradient>
    <linearGradient id="pageRight" x1="0" y1="0" x2="1" y2="1">
      <stop offset="0%" stop-color="#3498DB"/>
      <stop offset="100%" stop-color="#2176AE"/>
    </linearGradient>
    <linearGradient id="playGrad" x1="0" y1="0" x2="1" y2="1">
      <stop offset="0%" stop-color="#FFFFFF"/>
      <stop offset="100%" stop-color="#D6EAF8"/>
    </linearGradient>
    <filter id="glow">
      <feGaussianBlur stdDeviation="6" result="blur"/>
      <feComposite in="SourceGraphic" in2="blur" operator="over"/>
    </filter>
    <filter id="shadow">
      <feDropShadow dx="0" dy="4" stdDeviation="8" flood-color="#000" flood-opacity=".25"/>
    </filter>
  </defs>

  <!-- Background -->
  <rect width="512" height="512" rx="108" fill="url(#bg)"/>

  <!-- Subtle corner accents -->
  <circle cx="460" cy="52" r="80" fill="#2E86C1" opacity=".04"/>
  <circle cx="52" cy="460" r="60" fill="#2E86C1" opacity=".03"/>

  <!-- Book group -->
  <g transform="translate(256, 256)" filter="url(#shadow)">
    <!-- Left page -->
    <path d="M-8 -160 Q-8 -176 -24 -176 L-128 -176 Q-144 -176 -144 -160 L-144 152 Q-144 168 -128 168 L-24 168 Q-8 168 -8 152 Z" fill="#1B3F5C" opacity=".85"/>

    <!-- Doc lines on left page -->
    <g stroke-linecap="round" opacity=".5">
      <line x1="-120" y1="-128" x2="-56" y2="-128" stroke="#3D7EAA" stroke-width="4"/>
      <line x1="-120" y1="-104" x2="-32" y2="-104" stroke="#2D6A8F" stroke-width="2.5"/>
      <line x1="-120" y1="-84" x2="-44" y2="-84" stroke="#2D6A8F" stroke-width="2.5"/>
      <line x1="-120" y1="-64" x2="-38" y2="-64" stroke="#2D6A8F" stroke-width="2.5"/>
      <line x1="-120" y1="-36" x2="-72" y2="-36" stroke="#3D7EAA" stroke-width="4"/>
      <line x1="-120" y1="-12" x2="-40" y2="-12" stroke="#2D6A8F" stroke-width="2.5"/>
      <line x1="-120" y1="8" x2="-50" y2="8" stroke="#2D6A8F" stroke-width="2.5"/>
      <line x1="-120" y1="36" x2="-80" y2="36" stroke="#3D7EAA" stroke-width="4"/>
      <line x1="-120" y1="60" x2="-36" y2="60" stroke="#2D6A8F" stroke-width="2.5"/>
      <line x1="-120" y1="80" x2="-48" y2="80" stroke="#2D6A8F" stroke-width="2.5"/>
      <line x1="-120" y1="100" x2="-42" y2="100" stroke="#2D6A8F" stroke-width="2.5"/>
      <line x1="-120" y1="128" x2="-60" y2="128" stroke="#3D7EAA" stroke-width="4"/>
    </g>

    <!-- Spine -->
    <rect x="-12" y="-172" width="24" height="336" rx="4" fill="#0E2233"/>

    <!-- Right page -->
    <path d="M8 -160 Q8 -176 24 -176 L128 -176 Q144 -176 144 -160 L144 152 Q144 168 128 168 L24 168 Q8 168 8 152 Z" fill="url(#pageRight)"/>

    <!-- Play triangle -->
    <path d="M52 -40 L108 0 L52 40 Z" fill="url(#playGrad)" filter="url(#glow)" opacity=".95"/>

    <!-- Stacked pages beneath -->
    <rect x="-136" y="172" width="272" height="8" rx="4" fill="#122E42"/>
    <rect x="-128" y="180" width="256" height="6" rx="3" fill="#0E2233"/>
  </g>
</svg>
