<svg xmlns="http://www.w3.org/2000/svg" viewBox="0 0 512 512" width="512" height="512">
  <defs>
    <linearGradient id="bg" x1="0" y1="0" x2="1" y2="1">
      <stop offset="0%" stop-color="#1E5A8A"/>
      <stop offset="55%" stop-color="#2F83BF"/>
      <stop offset="100%" stop-color="#4BA8E0"/>
    </linearGradient>
    <linearGradient id="gloss" x1="0" y1="0" x2="0" y2="1">
      <stop offset="0%" stop-color="#FFFFFF" stop-opacity=".28"/>
      <stop offset="60%" stop-color="#FFFFFF" stop-opacity="0"/>
    </linearGradient>
    <linearGradient id="leftPage" x1="0" y1="0" x2="0" y2="1">
      <stop offset="0%" stop-color="#F4FAFF"/>
      <stop offset="100%" stop-color="#D3E7F5"/>
    </linearGradient>
    <linearGradient id="pageRight" x1="0" y1="0" x2="1" y2="1">
      <stop offset="0%" stop-color="#5AB8EF"/>
      <stop offset="100%" stop-color="#1E7FC8"/>
    </linearGradient>
    <linearGradient id="spineGrad" x1="0" y1="0" x2="0" y2="1">
      <stop offset="0%" stop-color="#0F3A5C"/>
      <stop offset="100%" stop-color="#17507D"/>
    </linearGradient>
    <linearGradient id="playGrad" x1="0" y1="0" x2="1" y2="1">
      <stop offset="0%" stop-color="#FFFFFF"/>
      <stop offset="100%" stop-color="#E7F4FD"/>
    </linearGradient>
    <filter id="glow" x="-40%" y="-40%" width="180%" height="180%">
      <feGaussianBlur stdDeviation="5" result="blur"/>
      <feComposite in="SourceGraphic" in2="blur" operator="over"/>
    </filter>
    <filter id="shadow" x="-20%" y="-20%" width="140%" height="140%">
      <feDropShadow dx="0" dy="6" stdDeviation="10" flood-color="#07223A" flood-opacity=".35"/>
    </filter>
  </defs>

  <!-- Background -->
  <rect width="512" height="512" rx="108" fill="url(#bg)"/>

  <!-- Soft light bloom -->
  <circle cx="420" cy="80" r="140" fill="#FFFFFF" opacity=".10"/>
  <circle cx="80"  cy="440" r="110" fill="#0B2F4C" opacity=".18"/>

  <!-- Top gloss highlight -->
  <rect width="512" height="512" rx="108" fill="url(#gloss)"/>

  <!-- Book group -->
  <g transform="translate(256, 256)" filter="url(#shadow)">
    <!-- Left page -->
    <path d="M-8 -160 Q-8 -176 -24 -176 L-128 -176 Q-144 -176 -144 -160 L-144 152 Q-144 168 -128 168 L-24 168 Q-8 168 -8 152 Z" fill="url(#leftPage)"/>

    <!-- Doc lines on left page -->
    <g stroke-linecap="round">
      <line x1="-120" y1="-128" x2="-56" y2="-128" stroke="#2F83BF" stroke-width="4"/>
      <line x1="-120" y1="-104" x2="-32" y2="-104" stroke="#7FAFD1" stroke-width="2.5"/>
      <line x1="-120" y1="-84"  x2="-44" y2="-84"  stroke="#7FAFD1" stroke-width="2.5"/>
      <line x1="-120" y1="-64"  x2="-38" y2="-64"  stroke="#7FAFD1" stroke-width="2.5"/>
      <line x1="-120" y1="-36"  x2="-72" y2="-36"  stroke="#2F83BF" stroke-width="4"/>
      <line x1="-120" y1="-12"  x2="-40" y2="-12"  stroke="#7FAFD1" stroke-width="2.5"/>
      <line x1="-120" y1="8"    x2="-50" y2="8"    stroke="#7FAFD1" stroke-width="2.5"/>
      <line x1="-120" y1="36"   x2="-80" y2="36"   stroke="#2F83BF" stroke-width="4"/>
      <line x1="-120" y1="60"   x2="-36" y2="60"   stroke="#7FAFD1" stroke-width="2.5"/>
      <line x1="-120" y1="80"   x2="-48" y2="80"   stroke="#7FAFD1" stroke-width="2.5"/>
      <line x1="-120" y1="100"  x2="-42" y2="100"  stroke="#7FAFD1" stroke-width="2.5"/>
      <line x1="-120" y1="128"  x2="-60" y2="128"  stroke="#2F83BF" stroke-width="4"/>
    </g>

    <!-- Spine -->
    <rect x="-12" y="-172" width="24" height="336" rx="4" fill="url(#spineGrad)"/>

    <!-- Right page -->
    <path d="M8 -160 Q8 -176 24 -176 L128 -176 Q144 -176 144 -160 L144 152 Q144 168 128 168 L24 168 Q8 168 8 152 Z" fill="url(#pageRight)"/>

    <!-- Right page sheen -->
    <path d="M12 -160 Q12 -172 24 -172 L64 -172 L30 168 L24 168 Q12 168 12 152 Z" fill="#FFFFFF" opacity=".10"/>

    <!-- Play triangle -->
    <path d="M52 -40 L108 0 L52 40 Z" fill="url(#playGrad)" filter="url(#glow)"/>

    <!-- Stacked pages beneath -->
    <rect x="-136" y="172" width="272" height="8" rx="4" fill="#15476E"/>
    <rect x="-128" y="180" width="256" height="6" rx="3" fill="#0F3A5C"/>
  </g>
</svg>
